<?xml version="1.0" encoding="UTF-8" standalone="no"?>
<!DOCTYPE svg PUBLIC "-//W3C//DTD SVG 1.1//EN" "http://www.w3.org/Graphics/SVG/1.1/DTD/svg11.dtd">
<svg width="100%" height="100%" viewBox="0 0 32 32" version="1.1" xmlns="http://www.w3.org/2000/svg" xmlns:xlink="http://www.w3.org/1999/xlink" xml:space="preserve" xmlns:serif="http://www.serif.com/" style="fill-rule:evenodd;clip-rule:evenodd;stroke-linejoin:round;stroke-miterlimit:2;">
    <path d="M16,32C24.837,32 32,24.837 32,16C32,7.163 24.837,0 16,0C7.163,0 0,7.163 0,16C0,24.837 7.163,32 16,32Z" style="fill-rule:nonzero;"/>
    <g transform="matrix(1,0,0,1,5.00004,5.25311)">
        <path d="M11,0.869C5.406,0.869 0.869,5.406 0.869,11C0.869,15.406 3.681,19.15 7.606,20.55C7.625,20.556 7.694,20.581 7.712,20.587C7.769,20.606 7.831,20.619 7.894,20.619C8.225,20.619 8.487,20.35 8.487,20.025L8.487,18.213C7.844,18.344 6.869,18.469 6.337,18.213C5.65,17.881 5.3,17.456 4.969,16.619C4.556,15.6 3.606,15.319 3.569,15.144C3.531,14.963 4.575,14.694 5.112,15.313C5.65,15.931 6.194,17.169 7.35,17.05C7.919,16.994 8.287,16.9 8.519,16.831C8.562,16.431 8.694,15.938 9.025,15.588C6.306,15.137 4.494,13.675 4.494,10.806C4.494,9.5 4.869,8.488 5.531,7.731C5.419,7.106 5.231,5.656 5.731,5.15C5.731,5.15 6.437,4.713 8.462,6.138C9.219,5.963 10.056,5.875 10.95,5.875L11.05,5.875C11.95,5.881 12.788,5.969 13.538,6.138C15.563,4.713 16.269,5.15 16.269,5.15C16.769,5.663 16.581,7.113 16.469,7.731C17.131,8.494 17.506,9.506 17.506,10.806C17.506,13.675 15.7,15.137 12.975,15.588C13.494,16.131 13.512,17.013 13.512,17.375L13.512,20.031C13.512,20.363 13.781,20.625 14.106,20.625C14.156,20.625 14.2,20.619 14.25,20.606C14.262,20.606 14.3,20.594 14.313,20.587C18.281,19.212 21.131,15.444 21.131,11.006C21.131,5.4 16.594,0.869 11,0.869Z" style="fill:white;fill-rule:nonzero;"/>
    </g>
</svg>
